<?xml version="1.0" standalone="no"?>
<!DOCTYPE svg PUBLIC "-//W3C//DTD SVG 20010904//EN"
 "http://www.w3.org/TR/2001/REC-SVG-20010904/DTD/svg10.dtd">
<svg version="1.0" xmlns="http://www.w3.org/2000/svg"
 width="512.000000pt" height="512.000000pt" viewBox="0 0 512.000000 512.000000"
 preserveAspectRatio="xMidYMid meet">
<metadata>
Created by potrace 1.14, written by Peter Selinger 2001-2017
</metadata>
<g transform="translate(0.000000,512.000000) scale(0.100000,-0.100000)"
fill="#000000" stroke="none">
<path d="M415 5110 c-197 -41 -349 -188 -400 -385 -13 -52 -15 -307 -15 -2165
0 -2303 -4 -2154 57 -2280 38 -78 151 -189 233 -228 36 -16 92 -35 124 -41 84
-15 4208 -15 4292 0 97 18 180 64 260 143 76 76 114 142 139 242 14 54 15 300
13 2190 l-3 2129 -23 59 c-30 81 -73 144 -135 203 -63 59 -106 86 -183 116
l-59 22 -2130 1 c-1172 1 -2148 -2 -2170 -6z m3151 -765 c35 -54 4 -347 -102
-975 -115 -676 -134 -795 -134 -821 l0 -27 318 -4 c302 -4 320 -5 375 -27 67
-27 88 -55 70 -99 -36 -87 -118 -261 -135 -285 -11 -15 -37 -39 -58 -52 -64
-40 -131 -46 -399 -35 -134 6 -246 9 -248 6 -6 -6 -50 -375 -68 -571 -9 -99
-20 -280 -24 -403 -8 -256 -11 -264 -97 -295 -40 -14 -70 -17 -159 -13 -274
13 -393 94 -446 306 -22 87 -17 374 10 549 19 125 61 353 77 418 6 20 3 21
-58 16 -150 -11 -367 -36 -548 -63 -107 -16 -253 -34 -325 -41 -127 -12 -131
-12 -175 11 -186 94 -305 210 -388 375 -28 56 -29 64 -21 124 29 206 194 538
529 1062 90 140 203 320 251 400 100 164 154 231 210 259 79 41 127 18 154
-74 33 -111 19 -176 -137 -606 -151 -416 -238 -685 -283 -873 -21 -86 -36
-159 -34 -162 3 -2 33 5 69 16 131 41 282 54 804 72 l68 2 63 232 c154 564
328 1082 437 1296 96 192 224 307 340 307 40 0 50 -4 64 -25z"/>
</g>
</svg>
